<svg width="1376" height="200" viewBox="0 0 1376 200" fill="none" xmlns="http://www.w3.org/2000/svg">
<path d="M730.723 197.553C730.164 197.785 729.779 198.074 729.413 198.074C721.072 198.074 712.731 198.383 704.409 197.978C697.3 197.65 690.828 191.593 688.998 184.494C688.709 183.375 688.497 182.256 687.495 180.578C687.283 181.079 687.168 181.658 686.84 182.063C672.354 200.331 648.332 202.241 630.802 194.718C609.189 185.458 596.59 168.502 592.179 145.816C587.305 120.777 592.795 97.8797 609.921 78.57C620.554 66.5906 633.846 59.2024 650.374 59.6847C666.151 60.1476 677.536 68.6161 686.782 80.6533C687.11 81.0777 687.399 81.5214 688.035 82.4281C688.227 81.2899 688.42 80.6533 688.42 80.0168C688.439 70.4873 688.285 60.9385 688.42 51.3898C688.747 30.614 671.564 22.9364 670.37 21.8368C672.816 21.0845 715.216 2.44997 718.163 0.135122C719.261 -0.732947 718.163 2.81649 718.163 4.08966C718.163 56.6754 718.163 109.242 718.163 161.827C718.163 169.987 718.76 178.089 721.611 185.844C723.21 190.184 725.175 194.255 729.914 196.087C730.26 196.222 730.415 196.917 730.723 197.515M688.42 131.136C688.42 125.6 688.42 120.083 688.42 114.547C688.42 108.914 687.842 103.204 688.574 97.6482C689.556 90.0864 686.012 85.0323 680.946 80.4219C679.347 78.9751 677.671 77.5669 675.898 76.3323C664.649 68.5004 651.549 69.0019 641.128 77.9141C633.788 84.2028 629.146 92.4012 626.006 101.429C620.323 117.749 618.416 134.551 620.323 151.719C621.517 162.522 624.522 172.727 631.361 181.484C639.741 192.229 652.204 196.762 664.456 193.039C673.837 190.204 681.1 184.32 686.282 176.044C687.514 174.077 688.304 171.473 688.324 169.139C688.516 156.465 688.42 143.772 688.42 131.098" fill="#16232B"/>
<path d="M133.011 57.7946C131.952 53.2228 131.278 48.9403 129.968 44.8508C122.339 20.892 96.7188 6.59784 71.5798 12.057C52.008 16.3009 39.0243 28.2803 32.282 46.7798C17.8343 86.4988 29.3925 135.805 59.7905 165.898C70.9441 176.932 83.5425 185.42 99.3194 188.198C108.142 189.76 116.58 188.545 124.516 184.359C125.479 183.858 126.674 182.565 126.674 181.658C126.616 167.248 126.674 152.819 126 138.448C125.788 134.108 123.803 129.651 121.839 125.639C119.874 121.646 116.137 119.524 111.455 119.563C110.781 119.563 110.107 119.177 109.433 118.965C109.433 118.656 109.433 118.328 109.433 118.019C110.377 117.711 111.301 117.344 112.265 117.074C122.147 114.393 131.49 110.4 140.139 104.902C142.759 103.224 145.533 101.372 147.363 98.9411C149.906 95.5846 152.872 95.8546 156.417 96.3369V198.094C149.848 197.245 142.855 200.486 136.864 194.834C134.283 192.403 131.22 190.455 128.253 188.468C127.579 188.005 126.134 187.87 125.499 188.275C99.7625 204.46 74.0841 201.065 49.1955 186.983C19.9726 170.451 4.33053 144.389 0.708967 111.268C-2.33468 83.2966 4.31126 57.8332 22.7851 36.1315C50.7944 3.20273 95.7171 -3.06666 132.761 21.1042C141.873 27.0457 149.983 34.5304 158.536 41.3399C158.921 41.6485 159.191 42.1115 159.749 42.7867C150.734 47.8601 141.911 52.8177 133.011 57.8139" fill="#16232B"/>
<path d="M370.031 115.453C369.376 102.702 369.337 90.009 367.893 77.4702C366.794 67.9408 358.685 62.9445 348.86 64.2949C327.959 67.1306 316.844 87.0576 319.387 101.255C319.445 101.545 319.329 101.873 319.213 102.972C310.237 98.4389 302.493 92.6325 293.824 87.6363C304.65 78.8206 316.093 72.1268 328.132 66.3589C336.936 62.1343 346.24 59.7616 356.007 59.6459C372.227 59.4723 385.904 64.5649 394.072 79.65C397.963 86.8454 399.215 94.7737 399.234 102.914C399.254 122.32 399.042 141.727 399.35 161.133C399.466 168.232 400.332 175.408 401.7 182.372C402.817 188.101 405.014 193.695 411.197 196.241C411.467 196.357 411.544 196.955 411.659 197.244C411.505 197.476 411.467 197.63 411.39 197.65C402.567 198.44 393.686 199.309 385.48 194.775C377.91 190.589 372.94 184.243 370.57 175.929C369.954 173.807 369.742 171.569 369.222 168.714C367.777 170.855 366.717 172.553 365.542 174.173C357.066 185.728 347.049 195.103 332.332 197.977C313.319 201.701 295.77 193.232 288.315 176.642C280.474 159.184 287.602 138.409 304.419 129.419C313.569 124.539 323.528 122.591 333.603 121.028C344.198 119.369 354.813 117.903 365.408 116.34C366.679 116.148 367.931 115.877 370.031 115.492M369.434 120.083C359.108 119.658 337.225 125.658 329.23 131.136C321.159 136.692 316.266 144.389 314.706 154.053C311.97 171.067 323.663 183.606 340.268 181.272C351.557 179.671 360.919 174.347 367.584 164.914C368.682 163.37 369.337 161.171 369.357 159.262C369.511 147.244 369.434 135.226 369.434 123.208V120.083Z" fill="#16232B"/>
<path d="M235.244 197.784H180.496C180.824 197.013 180.92 196.28 181.248 196.145C188.125 193.251 189.82 186.866 191.053 180.635C192.324 174.192 193.056 167.537 193.172 160.959C193.461 144.697 193.076 128.435 193.249 112.173C193.461 92.6323 176.432 83.5272 175.006 82.389C176.894 81.791 177.954 81.4245 179.032 81.1159C189.955 78.0487 218.966 59.7421 222.799 60.6294V85.7842C223.031 85.8806 223.262 85.9963 223.474 86.0928C224.61 84.7425 225.67 83.3536 226.883 82.0804C231.449 77.3157 235.706 72.1844 240.734 67.9598C252.504 58.0445 265.68 57.2922 279.319 63.7352C283.788 65.8379 287.853 68.77 292.9 71.7986C285.445 76.4862 278.76 80.6915 271.748 85.0897C270.997 83.585 270.361 82.254 269.687 80.9615C265.179 72.3966 256.896 68.8857 247.804 72.088C236.843 75.946 229.561 84.2023 223.397 93.5968C222.973 94.2527 222.934 95.2558 222.953 96.0852C222.953 119.504 222.953 142.922 223.088 166.341C223.127 173.652 224.263 180.809 227.095 187.618C228.578 191.187 230.486 194.428 234.377 195.932C234.724 196.068 235.013 196.473 235.244 196.82C235.34 196.955 235.244 197.225 235.244 197.784Z" fill="#16232B"/>
<path d="M580.312 197.765H524.968C525.507 196.897 525.719 196.145 526.143 195.971C530.554 194.274 532.365 190.493 533.868 186.461C536.931 178.205 537.605 169.544 537.643 160.844C537.721 140.781 537.894 120.719 537.393 100.677C537.239 94.3109 535.698 87.7907 533.675 81.7142C531.518 75.2326 526.124 72.2426 519.17 72.4548C504.568 72.9178 493.183 79.7852 483.59 90.2406C477.04 97.3588 473.053 104.921 473.669 115.453C474.786 133.933 473.996 152.51 474.536 171.029C474.69 176.334 476.366 181.677 477.811 186.866C478.87 190.667 481.047 193.946 484.861 195.798C485.42 196.068 485.747 196.801 486.171 197.322C485.535 197.592 484.919 198.074 484.283 198.093C480.816 198.171 477.348 198.132 473.881 198.132C460.994 198.132 448.106 198.132 435.219 198.132C434.102 198.132 432.965 197.997 431.308 197.9C432.021 196.878 432.252 196.164 432.715 195.971C437.01 194.139 438.937 190.396 440.439 186.403C443.541 178.147 444.099 169.486 444.157 160.805C444.253 144.659 444.196 128.493 444.176 112.347C444.176 100.137 439.727 90.4142 428.515 84.5113C427.783 84.1255 427.301 83.2575 426.473 82.3701C431.193 80.8269 435.45 79.6694 439.534 78.049C449.512 74.0559 459.183 69.5805 466.734 61.4014C467.986 60.0511 471.068 60.379 473.804 59.8389V95.0632C474.054 95.1597 474.305 95.2754 474.555 95.3718C475.345 94.3109 476.135 93.2692 476.944 92.2082C487.173 78.7821 499.251 67.6708 515.587 62.1344C539.223 54.1096 560.798 66.4748 565.518 91.0315C566.886 98.1111 567.329 105.441 567.444 112.675C567.733 131.001 567.329 149.327 567.83 167.634C568.003 174.019 569.698 180.462 571.336 186.693C572.414 190.782 574.784 194.428 579.157 196.106C579.542 196.261 579.734 196.878 580.37 197.785" fill="#16232B"/>
<path d="M921.972 3.53039C916.077 3.35677 910.741 6.98337 908.699 12.5197C891.362 59.3183 873.755 106.02 856.206 152.742C855.339 155.076 854.453 157.391 853.49 159.899C852.257 163.101 847.711 163.101 846.497 159.899C846.497 159.879 846.497 159.86 846.478 159.821C827.773 109.956 809.106 60.0899 790.305 10.2627C789.4 7.85144 787.377 4.07052 785.72 3.99336C776.204 3.54968 766.669 3.62684 757.769 3.68471C755.033 3.68471 753.261 6.55898 754.436 9.02816C756.941 14.3137 759.387 19.2714 760.851 24.4798C762.508 30.3441 762.623 36.7678 762.662 42.9407C762.816 75.2908 762.97 107.641 762.662 139.991C762.488 157.005 765.262 174.752 754.899 190.049C753.223 192.519 755.053 195.837 758.019 195.837H771.523C774.663 195.837 776.358 192.229 774.432 189.76C769 182.854 767.651 175.061 767.555 167.075C767.035 124.906 766.919 82.7369 766.726 40.568C766.726 40.0279 767.401 39.4684 768.21 38.2339C770.733 44.8891 773.026 50.8691 775.279 56.8684C791.885 101.14 808.432 145.45 825.134 189.683C826.039 192.075 828.1 195.702 829.796 195.817C837.809 196.3 845.861 196.184 854.569 196.126C857.208 196.126 858.999 193.425 858.017 190.975C856.611 187.503 855.358 184.436 854.626 181.234C853.837 177.723 853.471 173.498 854.665 170.238C872.407 122.224 890.418 74.3262 908.41 26.4088C909.142 24.4798 910.125 22.6472 910.992 20.776C911.974 68.2883 912.051 115.357 911.916 162.445C911.897 172.071 911.107 181.581 905.502 189.49C903.768 191.94 905.598 195.316 908.584 195.316H946.552C949.384 195.316 951.195 192.268 949.827 189.779C947.882 186.23 945.994 182.7 944.973 178.938C943.297 172.804 942.931 166.168 942.912 159.744C942.719 120.411 942.738 81.0779 942.796 41.7447C942.796 30.5756 942.757 19.31 950.232 9.62616C952.119 7.17628 950.309 3.62684 947.227 3.64613C938.269 3.704 930.101 3.80045 922.01 3.56897L921.972 3.53039Z" fill="#16232B"/>
<path d="M1032.14 55.9233C996.58 55.7882 964.737 88.8134 964.294 126.295C963.851 163.776 995.925 197.013 1032.97 197.476C1069.49 197.92 1102.05 165.435 1102.43 128.108C1102.84 89.1992 1070.57 56.0776 1032.14 55.9426V55.9233ZM1067.68 168.849C1062.98 182.468 1053 191.477 1037.84 192.114C1022.57 192.75 1011.05 185.246 1005.08 171.685C993.286 144.929 990.396 116.823 997.716 88.3698C1003.03 67.7097 1022.07 57.1579 1040.5 63.5044C1051.25 67.2082 1057.28 75.5802 1062.23 85.3605C1074.96 110.515 1071.77 157.044 1067.68 168.869V168.849Z" fill="#16232B"/>
<path d="M1314.93 76.3514C1312.66 78.917 1308.42 77.2387 1308.44 73.8243C1308.44 69.9662 1308.44 66.5325 1308.28 63.1374C1308.21 61.4013 1307.23 58.7971 1305.95 58.2569C1304.45 57.6204 1301.47 58.1026 1300.33 59.2793C1291.1 68.8281 1279.52 73.7472 1265.9 78.1647C1263.03 79.0906 1262.38 82.8715 1264.77 84.7041C1264.92 84.8199 1265.08 84.9356 1265.23 85.0513C1273.44 91.1471 1277.98 99.0948 1277.94 109.473C1277.91 124.211 1278.21 138.968 1277.71 153.687C1277.29 166.129 1278.58 179.169 1270.62 189.953C1268.79 192.422 1270.55 195.913 1273.61 195.913H1311.19C1313.72 195.913 1315.51 193.464 1314.76 191.052C1312.56 184.05 1310 177.163 1309.61 170.161C1308.42 148.227 1309.27 126.198 1308.19 104.265C1307.34 86.9611 1318.01 78.454 1330.92 71.7024C1340.51 66.6869 1348.91 69.9277 1354.77 79.1871C1355.04 79.6114 1355.33 80.0551 1355.62 80.4988C1356.73 82.1964 1359.01 82.6786 1360.72 81.5984C1365.17 78.782 1369.54 76.0234 1374.19 73.0913C1376.38 71.7024 1376.55 68.5002 1374.47 66.9376C1350.59 49.2097 1331.92 57.0416 1314.87 76.3514H1314.93Z" fill="#16232B"/>
<path d="M1183.34 55.9233C1147.78 55.7882 1115.94 88.8134 1115.49 126.295C1115.05 163.776 1147.13 197.013 1184.17 197.476C1220.69 197.92 1253.25 165.435 1253.63 128.108C1254.04 89.1992 1221.77 56.0776 1183.34 55.9426V55.9233ZM1218.88 168.849C1214.18 182.468 1204.2 191.477 1189.04 192.114C1173.77 192.75 1162.25 185.246 1156.28 171.685C1144.49 144.929 1141.6 116.823 1148.92 88.3698C1154.23 67.7097 1173.27 57.1579 1191.7 63.5044C1202.45 67.2082 1208.48 75.5802 1213.43 85.3605C1226.16 110.515 1222.97 157.044 1218.88 168.869V168.849Z" fill="#16232B"/>
</svg>
