<svg width="460" height="110" viewBox="0 0 460 110" fill="none" xmlns="http://www.w3.org/2000/svg">
<path d="M79.0982 68.2062C79.0982 90.0025 61.3901 107.669 39.551 107.669C37.22 107.669 34.9463 102.026 32.7261 101.64C26.0349 100.477 19.9131 103.078 14.8269 99.0093C5.78553 91.7757 0 80.6639 0 68.2062C0 46.4098 17.7082 28.7432 39.5472 28.7432C61.3862 28.7432 79.0944 46.4136 79.0944 68.2062H79.0982Z" fill="#FFB639"/>
<path d="M85.5258 40.7891C82.7171 47.9617 80.7414 49.8721 76.9507 49.2315C77.8257 45.9483 79.3466 42.7033 80.7185 41.9178C86.5766 38.6613 88.5676 29.8528 84.666 24.0795C84.5399 23.8927 84.2418 23.9766 84.238 24.2016C84.1768 27.5267 84.6048 36.1026 79.3734 36.7623C78.0894 21.315 73.9241 18.4589 70.5843 17.5284C70.2442 17.4331 69.992 17.8297 70.2174 18.1004C75.4259 24.396 74.2757 32.8881 74.2757 32.8881L65.0662 24.2092C64.8026 23.9613 64.3822 24.2283 64.4969 24.5714C65.1809 26.5925 66.8852 30.7336 70.3512 34.4629C77.3328 41.9788 71.1804 54.448 61.6729 55.3899C66.4075 49.0332 67.8329 44.7319 66.5757 41.7614C66.4687 41.5098 66.1133 41.4945 65.9795 41.7347C63.9045 45.4259 56.2198 59.5959 45.2372 57.0639C45.1837 57.0524 45.2487 58.5892 45.5544 59.1993C44.4462 57.4261 43.3762 55.6682 42.2948 53.9447C49.7655 48.202 51.4622 38.6308 49.5477 33.6736C49.4216 33.3457 48.9516 33.3647 48.8522 33.7003C47.446 38.3791 42.826 54.4404 32.9745 44.9264C29.8601 41.9178 28.8818 35.2904 30.1123 29.1511C30.1505 28.9605 29.9136 28.8423 29.7875 28.991C28.6296 30.3408 25.7254 34.2151 25.5381 39.3515C13.2754 35.0197 20.3373 16.2968 32.023 16.2853C32.3822 16.2853 32.7376 16.2853 33.0968 16.2586C34.4343 16.1633 37.648 15.8811 40.1319 14.9888C40.4414 14.8782 40.3879 14.4207 40.0631 14.3787C35.9513 13.8334 33.6929 13.7343 28.8818 13.0441C32.2446 9.77616 34.8775 7.38146 39.1689 6.69508C39.3982 6.65695 39.4097 6.3252 39.1804 6.27944C30.4486 4.41477 25.7904 10.3481 19.7335 15.8544C17.9069 9.53593 21.6022 5.15454 24.4147 0.388015C24.537 0.178288 24.323 -0.069571 24.0937 0.018133C14.3072 3.75127 14.6091 18.2873 13.5429 29.5058C13.5429 29.5058 10.9176 24.9795 9.44642 22.0776C9.3356 21.8602 9.01079 21.9251 8.98786 22.1691C8.38791 28.3542 11.8653 33.7499 15.3198 38.5621C24.8809 51.5728 30.4601 48.0189 34.0559 56.2593C34.3273 56.9304 33.2 58.0401 33.0471 59.0086C32.6268 61.3232 34.1094 62.4672 36.1768 61.9372C40.0669 60.1869 42.6158 61.1745 44.2169 65.1403C44.5341 65.9487 45.0844 66.8257 45.8066 67.2452C49.3452 69.1937 52.9564 71.0355 56.6669 72.9917C55.2759 73.8573 54.2824 75.089 52.5589 74.1738C52.3755 74.0785 51.424 75.0279 51.1145 75.6571C51.0075 75.8783 51.7641 76.7744 52.2609 76.9574C54.1142 77.5752 56.0096 78.0366 57.8936 78.5399C58.4133 78.6467 59.1928 78.8717 59.338 78.6619C60.0259 77.5599 59.3954 75.9431 59.7049 74.7572C60.9889 71.5655 57.114 70.4902 54.9588 69.3806C53.5984 68.82 52.9717 67.9201 53.4149 66.5283C54.4238 63.5769 49.5324 65.247 51.0075 61.6969C59.1393 60.8161 67.6877 60.9381 74.3712 55.5119C74.7687 55.1611 75.4756 55.1992 76.0641 55.0696C82.6636 54.1315 88.6593 47.5346 85.9079 40.8005C85.8353 40.6251 85.5869 40.6251 85.5181 40.8005L85.5258 40.7891Z" fill="#16232B"/>
<path d="M38.97 66.0211C40.38 66.2575 41.7557 66.4863 43.7734 66.8142C42.7187 65.2012 42.1226 63.8895 41.1099 63.0086C40.701 62.6235 40.2386 62.3642 39.7533 62.2231C38.2592 61.7922 36.5701 62.4824 35.7486 63.9962C35.569 64.3242 35.6301 64.8466 35.5957 65.2622C36.0313 65.2203 36.4937 65.2241 36.8759 65.083C37.3688 64.8466 37.7777 64.4576 38.4044 64.0458C38.6604 64.9228 38.8247 65.5177 38.9738 66.0249L38.97 66.0211Z" fill="#16232B"/>
<path d="M37.2924 95.932C34.3767 94.4601 34.1475 92.6183 36.4594 90.3304C38.2401 88.5649 40.2387 87.0701 42.4857 85.1444C35.9053 85.949 30.4866 88.3132 26.2067 92.8624C26.3595 91.8938 37.9383 78.4827 53.3039 83.2797C55.7916 84.0576 56.6858 83.2835 57.9965 80.6639C55.6388 77.7048 51.5881 77.3807 50.2927 80.0919C43.3073 77.4875 34.3424 78.7878 34.1857 78.742C30.9566 77.7696 31.3426 75.2643 31.4228 72.7972C31.4993 70.2004 31.633 67.5388 31.4114 64.942C30.9299 59.5806 26.115 54.57 20.8644 53.0562C19.4505 52.6482 18.0061 52.4956 16.6075 52.6558C16.0266 55.4013 16.9705 57.8265 18.2506 60.1373C20.639 64.4539 23.9292 67.2604 29.581 66.4406C29.0765 67.31 28.9007 67.7638 28.595 68.0993C26.3443 70.616 23.9597 73.0107 21.8121 75.5999C16.5119 82.0252 11.9683 88.8699 9.89333 96.8739C9.46916 98.5135 9.14435 100.203 8.94181 101.945C8.89214 102.399 8.76985 105.213 8.65139 108.195C8.63228 108.672 9.15199 108.969 9.55705 108.718C10.9289 107.867 16.3017 104.966 23.9788 105.21C32.8329 105.492 39.8298 109.785 43.3416 109.114C49.1195 108.005 57.0527 104.489 59.7162 102.098C58.2755 99.1198 39.2184 96.9196 37.2924 95.9358V95.932Z" fill="#16232B"/>
<path d="M288.368 81.6975C288.216 81.76 288.12 81.8434 288.018 81.8434C285.801 81.8434 283.579 81.9268 281.367 81.8174C279.474 81.7236 277.753 80.0715 277.268 78.1328C277.192 77.8305 277.131 77.5178 276.868 77.0644C276.812 77.1999 276.782 77.3615 276.691 77.4709C272.839 82.4688 266.446 82.9848 261.789 80.9314C256.039 78.3986 252.688 73.7603 251.514 67.5585C250.218 60.7104 251.676 54.4461 256.231 49.172C259.056 45.8939 262.594 43.877 266.992 44.0073C271.189 44.1324 274.215 46.4515 276.675 49.74C276.761 49.8547 276.837 49.9798 277.004 50.2299C277.055 49.9225 277.106 49.7453 277.106 49.5733C277.111 46.9623 277.121 44.3565 277.106 41.7455C277.09 38.4934 275.865 35.945 273.051 34.3294C273.026 34.3137 273.001 34.2981 272.975 34.2825C272.778 34.173 272.626 33.9646 272.307 33.6623C272.955 33.4538 273.411 33.3131 273.871 33.1672C276.802 32.2239 279.606 31.02 282.025 29.0136C282.228 28.8468 282.466 28.6904 282.592 28.4716C283.159 27.4605 284.04 27.6221 285.022 27.7263V28.8051C285.022 43.1839 285.022 57.5626 285.022 71.9414C285.022 74.172 285.179 76.3869 285.938 78.508C286.363 79.6963 286.885 80.8063 288.15 81.3066C288.246 81.3431 288.282 81.5359 288.368 81.6975ZM277.111 63.5351C277.111 62.0238 277.111 60.5124 277.111 59.001C277.111 57.4584 276.959 55.8949 277.151 54.3836C277.414 52.3146 276.468 50.9335 275.121 49.6723C274.696 49.2762 274.251 48.8906 273.78 48.5518C270.789 46.4098 267.301 46.5506 264.532 48.9844C262.579 50.7042 261.349 52.9452 260.508 55.4155C258.995 59.8766 258.489 64.4732 258.995 69.1688C259.314 72.1238 260.114 74.912 261.931 77.3093C264.163 80.2487 267.473 81.489 270.733 80.4728C273.228 79.6963 275.157 78.0859 276.539 75.8293C276.868 75.2925 277.075 74.5785 277.085 73.9427C277.136 70.477 277.111 67.006 277.111 63.5403" fill="#16232B"/>
<path d="M129.382 43.481C129.104 42.2303 128.921 41.0577 128.572 39.9372C126.542 33.3862 119.729 29.4775 113.043 30.968C107.835 32.1302 104.383 35.4031 102.591 40.4635C98.749 51.3245 101.821 64.8121 109.905 73.036C112.871 76.0535 116.222 78.3726 120.418 79.1335C122.761 79.5609 125.009 79.2273 127.119 78.086C127.373 77.9453 127.696 77.5961 127.691 77.346C127.676 73.406 127.691 69.4608 127.509 65.5261C127.453 64.3378 126.927 63.1235 126.401 62.0239C125.879 60.9294 124.882 60.3562 123.637 60.3666C123.46 60.3666 123.278 60.2624 123.1 60.205C123.1 60.1164 123.1 60.0331 123.1 59.9445C123.354 59.8559 123.602 59.7568 123.855 59.6891C126.487 58.9543 128.967 57.865 131.27 56.3589C131.968 55.9003 132.702 55.3947 133.193 54.7277C133.872 53.8104 134.661 53.8834 135.603 54.0189V81.8488C133.856 81.6195 131.994 82.5002 130.404 80.9576C129.716 80.2905 128.901 79.7589 128.112 79.2169C127.929 79.0918 127.55 79.0501 127.378 79.1648C120.534 83.5946 113.701 82.6618 107.085 78.8156C99.3108 74.292 95.1502 67.1625 94.1885 58.0995C93.3786 50.4489 95.1502 43.4863 100.06 37.5503C107.511 28.5498 119.461 26.8352 129.311 33.4435C131.736 35.0695 133.892 37.1177 136.165 38.9782C136.271 39.0616 136.342 39.1919 136.489 39.3743C134.089 40.7606 131.741 42.1156 129.377 43.481" fill="#16232B"/>
<path d="M192.43 59.2461C192.258 55.7596 192.243 52.2834 191.858 48.8594C191.564 46.2536 189.408 44.8882 186.791 45.253C181.234 46.0295 178.278 51.4808 178.951 55.3583C178.966 55.4364 178.936 55.525 178.905 55.8325C176.521 54.5922 174.456 53.0026 172.153 51.6372C175.033 49.2294 178.08 47.395 181.279 45.8158C183.623 44.6641 186.098 44.0074 188.694 43.9814C193.012 43.9345 196.646 45.326 198.818 49.4535C199.85 51.4183 200.189 53.5915 200.189 55.8117C200.194 61.1171 200.139 66.4277 200.22 71.7331C200.25 73.677 200.483 75.6366 200.847 77.544C201.146 79.1075 201.728 80.6397 203.373 81.338C203.444 81.3693 203.464 81.5361 203.495 81.6143C203.454 81.6768 203.439 81.7237 203.424 81.7237C201.075 81.9374 198.716 82.1771 196.53 80.9367C194.515 79.7902 193.194 78.0547 192.567 75.7825C192.405 75.1988 192.344 74.589 192.207 73.8125C191.823 74.4014 191.539 74.8652 191.225 75.303C188.968 78.4612 186.305 81.0253 182.393 81.8123C177.331 82.8338 172.669 80.5146 170.685 75.9753C168.6 71.2015 170.493 65.5209 174.972 63.061C177.407 61.7216 180.059 61.1952 182.737 60.7679C185.551 60.3145 188.376 59.9132 191.195 59.4858C191.534 59.4337 191.868 59.3608 192.425 59.2513M192.268 60.5125C189.52 60.3927 183.699 62.0395 181.578 63.5352C179.427 65.0518 178.131 67.1625 177.716 69.8048C176.987 74.4535 180.1 77.888 184.514 77.2469C187.515 76.8092 190.005 75.3551 191.777 72.7754C192.066 72.3533 192.243 71.7487 192.253 71.2276C192.293 67.939 192.273 64.6557 192.273 61.3672V60.5125" fill="#16232B"/>
<path d="M156.573 81.76H142.011C142.102 81.5463 142.122 81.3483 142.208 81.3118C144.035 80.5197 144.491 78.7738 144.815 77.0696C145.149 75.3029 145.346 73.4892 145.377 71.6912C145.453 67.2457 145.392 62.7951 145.397 58.3496C145.397 55.5822 144.516 53.237 142.35 51.5015C142.036 51.2514 141.661 51.0794 141.327 50.8501C141.115 50.7042 140.922 50.5165 140.548 50.2039C141.049 50.0371 141.332 49.9381 141.621 49.8547C144.526 49.0156 147.265 47.8065 149.725 45.972C150.119 45.6802 150.55 45.3779 150.823 44.9818C151.44 44.075 152.245 44.0073 153.263 44.247V51.1263C153.323 51.1524 153.384 51.1836 153.445 51.2097C153.749 50.8449 154.032 50.4592 154.356 50.11C155.571 48.8071 156.705 47.4052 158.041 46.2483C161.174 43.5382 164.677 43.3298 168.301 45.0913C169.485 45.6698 170.568 46.4671 171.91 47.2958C169.931 48.5778 168.149 49.7244 166.281 50.9335C166.079 50.5218 165.912 50.1569 165.729 49.8026C164.53 47.4573 162.328 46.4984 159.909 47.374C156.993 48.4319 155.06 50.6885 153.42 53.2578C153.303 53.435 153.298 53.7112 153.298 53.9406C153.298 60.3456 153.298 66.7506 153.334 73.1557C153.344 75.1517 153.642 77.1165 154.402 78.977C154.796 79.9516 155.303 80.8376 156.335 81.2493C156.431 81.2858 156.502 81.4004 156.568 81.489C156.593 81.5255 156.568 81.6037 156.568 81.7548" fill="#16232B"/>
<path d="M248.356 81.7548H233.637C233.783 81.5203 233.834 81.3118 233.95 81.2649C235.125 80.8011 235.606 79.764 236.006 78.6643C236.82 76.4025 236.998 74.0364 237.008 71.66C237.028 66.1722 237.074 60.6896 236.942 55.207C236.901 53.4663 236.491 51.6787 235.95 50.0214C235.373 48.2495 233.945 47.4313 232.088 47.4886C228.206 47.6137 225.179 49.4899 222.623 52.351C220.881 54.3001 219.818 56.3639 219.985 59.246C220.279 64.3012 220.077 69.3825 220.213 74.4482C220.254 75.9022 220.699 77.3614 221.084 78.779C221.367 79.8161 221.944 80.7177 222.957 81.218C223.103 81.291 223.189 81.4942 223.306 81.6349C223.139 81.7079 222.972 81.8434 222.805 81.8486C221.884 81.8695 220.962 81.859 220.041 81.859C216.614 81.859 213.183 81.859 209.756 81.859C209.457 81.859 209.159 81.8226 208.713 81.7913C208.906 81.5151 208.966 81.317 209.088 81.2649C210.227 80.7646 210.738 79.7379 211.143 78.6435C211.968 76.3869 212.12 74.0156 212.135 71.6391C212.16 67.2197 212.145 62.8003 212.14 58.386C212.14 55.0454 210.956 52.3875 207.974 50.7719C207.782 50.6677 207.655 50.4279 207.433 50.183C208.688 49.7609 209.822 49.443 210.905 49C213.562 47.9107 216.134 46.6808 218.138 44.4502C218.472 44.0802 219.292 44.174 220.016 44.0229V53.6539C220.082 53.68 220.152 53.7112 220.218 53.7373C220.431 53.4507 220.638 53.1588 220.851 52.8722C223.574 49.198 226.783 46.1649 231.126 44.6483C237.418 42.4542 243.153 45.8365 244.408 52.5543C244.772 54.493 244.889 56.4994 244.919 58.4746C245 63.483 244.889 68.4965 245.02 73.5049C245.066 75.2507 245.516 77.0123 245.952 78.7217C246.235 79.8421 246.868 80.8376 248.032 81.2962C248.133 81.3379 248.184 81.5099 248.356 81.7548Z" fill="#16232B"/>
<path d="M288.368 81.6975C288.216 81.76 288.12 81.8434 288.018 81.8434C285.801 81.8434 283.579 81.9268 281.367 81.8174C279.474 81.7236 277.753 80.0715 277.268 78.1328C277.192 77.8305 277.131 77.5178 276.868 77.0644C276.812 77.1999 276.782 77.3615 276.691 77.4709C272.839 82.4688 266.446 82.9848 261.789 80.9314C256.039 78.3986 252.688 73.7603 251.514 67.5585C250.218 60.7104 251.676 54.4461 256.231 49.172C259.056 45.8939 262.594 43.877 266.992 44.0073C271.189 44.1324 274.215 46.4515 276.675 49.74C276.761 49.8547 276.837 49.9798 277.004 50.2299C277.055 49.9225 277.106 49.7453 277.106 49.5733C277.111 46.9623 277.121 44.3565 277.106 41.7455C277.09 38.4934 275.865 35.945 273.051 34.3294C273.026 34.3137 273.001 34.2981 272.975 34.2825C272.778 34.173 272.626 33.9646 272.307 33.6623C272.955 33.4538 273.411 33.3131 273.871 33.1672C276.802 32.2239 279.606 31.02 282.025 29.0136C282.228 28.8468 282.466 28.6904 282.592 28.4716C283.159 27.4605 284.04 27.6221 285.022 27.7263V28.8051C285.022 43.1839 285.022 57.5626 285.022 71.9414C285.022 74.172 285.179 76.3869 285.938 78.508C286.363 79.6963 286.885 80.8063 288.15 81.3066C288.246 81.3431 288.282 81.5359 288.368 81.6975ZM277.111 63.5351C277.111 62.0238 277.111 60.5124 277.111 59.001C277.111 57.4584 276.959 55.8949 277.151 54.3836C277.414 52.3146 276.468 50.9335 275.121 49.6723C274.696 49.2762 274.251 48.8906 273.78 48.5518C270.789 46.4098 267.301 46.5506 264.532 48.9844C262.579 50.7042 261.349 52.9452 260.508 55.4155C258.995 59.8766 258.489 64.4732 258.995 69.1688C259.314 72.1238 260.114 74.912 261.931 77.3093C264.163 80.2487 267.473 81.489 270.733 80.4728C273.228 79.6963 275.157 78.0859 276.539 75.8293C276.868 75.2925 277.075 74.5785 277.085 73.9427C277.136 70.477 277.111 67.006 277.111 63.5403" fill="#16232B"/>
<path d="M248.356 81.7548H233.637C233.783 81.5203 233.834 81.3118 233.95 81.2649C235.125 80.8011 235.606 79.764 236.006 78.6643C236.82 76.4025 236.998 74.0364 237.008 71.66C237.028 66.1722 237.074 60.6896 236.942 55.207C236.901 53.4663 236.491 51.6787 235.95 50.0214C235.373 48.2495 233.945 47.4313 232.088 47.4886C228.206 47.6137 225.179 49.4899 222.623 52.351C220.881 54.3001 219.818 56.3639 219.985 59.246C220.279 64.3012 220.077 69.3825 220.213 74.4482C220.254 75.9022 220.699 77.3614 221.084 78.779C221.367 79.8161 221.944 80.7177 222.957 81.218C223.103 81.291 223.189 81.4942 223.306 81.6349C223.139 81.7079 222.972 81.8434 222.805 81.8486C221.884 81.8695 220.962 81.859 220.041 81.859C216.614 81.859 213.183 81.859 209.756 81.859C209.457 81.859 209.159 81.8226 208.713 81.7913C208.906 81.5151 208.966 81.317 209.088 81.2649C210.227 80.7646 210.738 79.7379 211.143 78.6435C211.968 76.3869 212.12 74.0156 212.135 71.6391C212.16 67.2197 212.145 62.8003 212.14 58.386C212.14 55.0454 210.956 52.3875 207.974 50.7719C207.782 50.6677 207.655 50.4279 207.433 50.183C208.688 49.7609 209.822 49.443 210.905 49C213.562 47.9107 216.134 46.6808 218.138 44.4502C218.472 44.0802 219.292 44.174 220.016 44.0229V53.6539C220.082 53.68 220.152 53.7112 220.218 53.7373C220.431 53.4507 220.638 53.1588 220.851 52.8722C223.574 49.198 226.783 46.1649 231.126 44.6483C237.418 42.4542 243.153 45.8365 244.408 52.5543C244.772 54.493 244.889 56.4994 244.919 58.4746C245 63.483 244.889 68.4965 245.02 73.5049C245.066 75.2507 245.516 77.0123 245.952 78.7217C246.235 79.8421 246.868 80.8376 248.032 81.2962C248.133 81.3379 248.184 81.5099 248.356 81.7548Z" fill="#16232B"/>
<path d="M339.237 28.6383C337.668 28.5914 336.251 29.5816 335.704 31.0982C331.093 43.8978 326.406 56.6715 321.744 69.4503C321.512 70.0861 321.279 70.7219 321.021 71.4046C320.697 72.2802 319.487 72.2854 319.163 71.4046C319.163 71.3994 319.163 71.3942 319.158 71.3838C314.182 57.745 309.222 44.1063 304.221 30.4832C303.978 29.8214 303.442 28.7895 303.001 28.7686C300.47 28.6435 297.935 28.6696 295.566 28.6852C294.837 28.6852 294.366 29.4722 294.675 30.1497C295.343 31.5985 295.991 32.9483 296.381 34.3763C296.821 35.9814 296.851 37.7377 296.861 39.4263C296.907 48.2704 296.942 57.1197 296.861 65.9689C296.816 70.6229 297.555 75.4749 294.796 79.6598C294.351 80.3321 294.837 81.2441 295.626 81.2441H299.22C300.055 81.2441 300.506 80.2539 299.99 79.5816C298.542 77.6898 298.188 75.5635 298.162 73.3798C298.026 61.8466 297.995 50.3133 297.94 38.7801C297.94 38.6289 298.117 38.483 298.334 38.139C299.008 39.9579 299.615 41.5943 300.217 43.236C304.631 55.3477 309.035 67.4594 313.479 79.5555C313.717 80.207 314.268 81.2024 314.719 81.2337C316.85 81.3692 318.996 81.3327 321.309 81.3171C322.013 81.3171 322.489 80.577 322.225 79.9099C321.851 78.9614 321.517 78.1171 321.324 77.2468C321.112 76.2879 321.016 75.1309 321.334 74.2397C326.052 61.1117 330.845 48.0098 335.629 34.9026C335.821 34.3763 336.084 33.876 336.317 33.36C336.575 46.3525 336.595 59.2251 336.565 72.103C336.56 74.7348 336.347 77.3354 334.859 79.5034C334.399 80.1705 334.884 81.0982 335.679 81.0982H345.777C346.531 81.0982 347.012 80.2695 346.648 79.5868C346.131 78.6122 345.63 77.6481 345.357 76.6214C344.912 74.9433 344.815 73.1297 344.805 71.3681C344.755 60.6114 344.76 49.8547 344.775 39.0928C344.775 36.0388 344.765 32.9587 346.754 30.3112C347.255 29.6442 346.774 28.6696 345.954 28.6748C343.575 28.6904 341.399 28.7165 339.248 28.6539L339.237 28.6383Z" fill="#16232B"/>
<path d="M368.534 42.965C359.074 42.9285 350.606 51.9602 350.489 62.2061C350.373 72.4573 358.902 81.5463 368.757 81.6714C378.475 81.7913 387.131 72.9055 387.232 62.7012C387.343 52.0644 378.759 43.0014 368.534 42.965ZM377.989 73.8488C376.739 77.5699 374.087 80.0402 370.053 80.2122C365.988 80.3842 362.926 78.336 361.337 74.6254C358.203 67.3083 357.429 59.6212 359.383 51.8403C360.8 46.1909 365.862 43.3037 370.761 45.0392C373.621 46.0502 375.226 48.3381 376.542 51.0169C379.928 57.8962 379.078 70.6229 377.994 73.854L377.989 73.8488Z" fill="#16232B"/>
<path d="M443.755 48.5521C443.152 49.2557 442.024 48.7971 442.024 47.859C442.024 46.801 442.024 45.8682 441.983 44.9353C441.963 44.461 441.7 43.747 441.36 43.6011C440.961 43.4291 440.166 43.5594 439.867 43.8825C437.417 46.4936 434.335 47.8434 430.711 49.0472C429.946 49.3026 429.774 50.3345 430.412 50.8348C430.453 50.8661 430.493 50.8973 430.534 50.9286C432.715 52.5911 433.925 54.7696 433.92 57.6099C433.91 61.6384 433.991 65.6774 433.859 69.7008C433.748 73.0987 434.092 76.6687 431.976 79.6184C431.49 80.2959 431.956 81.2496 432.771 81.2496H442.768C443.436 81.2496 443.917 80.5774 443.719 79.9207C443.137 78.0028 442.454 76.1214 442.353 74.2036C442.034 68.2102 442.261 62.1804 441.978 56.1819C441.755 51.4498 444.59 49.1254 448.022 47.2753C450.573 45.8994 452.81 46.7906 454.364 49.3234C454.435 49.4433 454.511 49.558 454.592 49.683C454.89 50.1469 455.493 50.2772 455.948 49.9853C457.132 49.2192 458.297 48.4583 459.532 47.6557C460.119 47.2753 460.164 46.3997 459.608 45.9776C453.255 41.1308 448.29 43.2728 443.755 48.5521Z" fill="#16232B"/>
<path d="M408.753 42.965C399.293 42.9285 390.825 51.9602 390.709 62.2061C390.592 72.4573 399.121 81.5463 408.976 81.6714C418.694 81.7913 427.35 72.9055 427.451 62.7012C427.562 52.0644 418.978 43.0014 408.753 42.965ZM418.209 73.8488C416.958 77.5699 414.306 80.0402 410.272 80.2122C406.207 80.3842 403.145 78.336 401.556 74.6254C398.423 67.3083 397.648 59.6212 399.602 51.8403C401.019 46.1909 406.081 43.3037 410.981 45.0392C413.84 46.0502 415.445 48.3381 416.761 51.0169C420.147 57.8962 419.297 70.6229 418.214 73.854L418.209 73.8488Z" fill="#16232B"/>
<path d="M130.411 106L127.681 96.7601H128.843L131.125 104.978L133.295 96.7601H134.569L136.739 105.006L139.021 96.7601H140.127L137.411 106H136.025L134.387 100.008L133.911 97.9221H133.897L133.421 100.008L131.797 106H130.411Z" fill="#646464"/>
<path d="M152.445 106H151.255L150.275 103.438H146.089L145.109 106H143.933L147.531 96.7601H148.861L152.445 106ZM146.495 102.388H149.869L148.175 97.8381L146.495 102.388Z" fill="#646464"/>
<path d="M161.323 96.7601C162.266 96.7601 163.022 97.0028 163.591 97.4881C164.161 97.9735 164.445 98.6315 164.445 99.4621C164.445 100.293 164.156 100.941 163.577 101.408C163.008 101.865 162.252 102.094 161.309 102.094L161.211 102.164H158.943V106H157.823V96.7601H161.323ZM161.309 101.114C161.972 101.114 162.462 100.979 162.779 100.708C163.106 100.428 163.269 100.013 163.269 99.4621C163.269 98.9115 163.106 98.5008 162.779 98.2301C162.462 97.9501 161.972 97.8101 161.309 97.8101H158.943V101.114H161.309ZM161.953 101.338L165.005 106H163.675L161.015 101.954L161.953 101.338Z" fill="#646464"/>
<path d="M170.634 106V96.7601H177.116V97.8101H171.754V100.792H175.926V101.842H171.754V104.95H177.326V106H170.634Z" fill="#646464"/>
<path d="M190.314 96.7601V106H189.194V96.7601H190.314ZM184.182 96.7601V106H183.062V96.7601H184.182ZM189.712 100.792V101.842H183.65V100.792H189.712Z" fill="#646464"/>
<path d="M200.567 96.6201C201.444 96.6201 202.2 96.8161 202.835 97.2081C203.479 97.5908 203.974 98.1368 204.319 98.8461C204.674 99.5555 204.851 100.4 204.851 101.38C204.851 102.36 204.674 103.205 204.319 103.914C203.974 104.623 203.479 105.174 202.835 105.566C202.2 105.949 201.444 106.14 200.567 106.14C199.69 106.14 198.929 105.949 198.285 105.566C197.65 105.174 197.156 104.623 196.801 103.914C196.456 103.205 196.283 102.36 196.283 101.38C196.283 100.4 196.456 99.5555 196.801 98.8461C197.156 98.1368 197.65 97.5908 198.285 97.2081C198.929 96.8161 199.69 96.6201 200.567 96.6201ZM200.567 97.6701C199.932 97.6701 199.382 97.8195 198.915 98.1181C198.448 98.4075 198.089 98.8321 197.837 99.3921C197.585 99.9428 197.459 100.605 197.459 101.38C197.459 102.155 197.585 102.822 197.837 103.382C198.089 103.933 198.448 104.357 198.915 104.656C199.382 104.945 199.932 105.09 200.567 105.09C201.211 105.09 201.762 104.945 202.219 104.656C202.686 104.357 203.045 103.933 203.297 103.382C203.549 102.822 203.675 102.155 203.675 101.38C203.675 100.605 203.549 99.9428 203.297 99.3921C203.045 98.8321 202.686 98.4075 202.219 98.1181C201.762 97.8195 201.211 97.6701 200.567 97.6701Z" fill="#646464"/>
<path d="M217.886 96.7601V102.556C217.886 103.741 217.573 104.637 216.948 105.244C216.322 105.841 215.426 106.14 214.26 106.14C213.102 106.14 212.206 105.841 211.572 105.244C210.946 104.637 210.634 103.741 210.634 102.556V96.7601H211.754V102.276C211.754 103.237 211.954 103.947 212.356 104.404C212.766 104.861 213.401 105.09 214.26 105.09C215.118 105.09 215.748 104.861 216.15 104.404C216.56 103.947 216.766 103.237 216.766 102.276V96.7601H217.886Z" fill="#646464"/>
<path d="M227.196 96.6201C228.008 96.6201 228.708 96.7881 229.296 97.1241C229.884 97.4508 230.374 97.9361 230.766 98.5801L229.828 99.3081C229.482 98.7108 229.09 98.2908 228.652 98.0481C228.222 97.7961 227.7 97.6701 227.084 97.6701C226.589 97.6701 226.178 97.7401 225.852 97.8801C225.534 98.0201 225.301 98.2068 225.152 98.4401C225.002 98.6641 224.928 98.9208 224.928 99.2101C224.928 99.5368 225.03 99.8261 225.236 100.078C225.441 100.321 225.852 100.512 226.468 100.652L228.47 101.1C229.356 101.296 229.972 101.595 230.318 101.996C230.672 102.388 230.85 102.878 230.85 103.466C230.85 103.989 230.7 104.455 230.402 104.866C230.112 105.267 229.702 105.58 229.17 105.804C228.638 106.028 228.012 106.14 227.294 106.14C226.622 106.14 226.029 106.051 225.516 105.874C225.012 105.687 224.578 105.44 224.214 105.132C223.85 104.824 223.551 104.479 223.318 104.096L224.298 103.298C224.475 103.653 224.704 103.965 224.984 104.236C225.264 104.507 225.6 104.717 225.992 104.866C226.393 105.015 226.85 105.09 227.364 105.09C227.84 105.09 228.25 105.034 228.596 104.922C228.95 104.801 229.221 104.628 229.408 104.404C229.594 104.171 229.688 103.891 229.688 103.564C229.688 103.265 229.59 102.999 229.394 102.766C229.198 102.523 228.829 102.341 228.288 102.22L226.118 101.73C225.548 101.599 225.086 101.422 224.732 101.198C224.386 100.965 224.134 100.694 223.976 100.386C223.826 100.069 223.752 99.7281 223.752 99.3641C223.752 98.8695 223.887 98.4168 224.158 98.0061C224.438 97.5861 224.834 97.2501 225.348 96.9981C225.87 96.7461 226.486 96.6201 227.196 96.6201Z" fill="#646464"/>
<path d="M237.816 96.7601V106H236.696V96.7601H237.816Z" fill="#646464"/>
<path d="M251.591 96.7601V106H250.205L246.341 99.8121L245.361 98.0761H245.347L245.403 99.4761V106H244.339V96.7601H245.725L249.575 102.92L250.569 104.698H250.583L250.527 103.284V96.7601H251.591Z" fill="#646464"/>
<path d="M261.844 106.14C260.967 106.14 260.206 105.949 259.562 105.566C258.928 105.174 258.433 104.623 258.078 103.914C257.733 103.205 257.56 102.36 257.56 101.38C257.56 100.4 257.742 99.5555 258.106 98.8461C258.48 98.1368 258.998 97.5908 259.66 97.2081C260.323 96.8161 261.084 96.6201 261.942 96.6201C262.857 96.6201 263.599 96.7928 264.168 97.1381C264.747 97.4835 265.214 98.0155 265.568 98.7341L264.546 99.2941C264.341 98.7621 264.014 98.3608 263.566 98.0901C263.128 97.8101 262.586 97.6701 261.942 97.6701C261.317 97.6701 260.762 97.8195 260.276 98.1181C259.8 98.4075 259.422 98.8321 259.142 99.3921C258.872 99.9428 258.736 100.605 258.736 101.38C258.736 102.155 258.853 102.822 259.086 103.382C259.329 103.933 259.684 104.357 260.15 104.656C260.626 104.945 261.205 105.09 261.886 105.09C262.269 105.09 262.624 105.043 262.95 104.95C263.286 104.847 263.576 104.698 263.818 104.502C264.07 104.306 264.266 104.059 264.406 103.76C264.546 103.461 264.616 103.111 264.616 102.71V102.388H261.676V101.338H265.638V106H264.756L264.7 104.278L264.938 104.32C264.696 104.899 264.313 105.347 263.79 105.664C263.268 105.981 262.619 106.14 261.844 106.14Z" fill="#646464"/>
<path d="M286.826 106H285.636L284.656 103.438H280.47L279.49 106H278.314L281.912 96.7601H283.242L286.826 106ZM280.876 102.388H284.25L282.556 97.8381L280.876 102.388Z" fill="#646464"/>
<path d="M299.456 96.7601V106H298.07L294.206 99.8121L293.226 98.0761H293.212L293.268 99.4761V106H292.204V96.7601H293.59L297.44 102.92L298.434 104.698H298.448L298.392 103.284V96.7601H299.456Z" fill="#646464"/>
<path d="M308.968 96.7601C310.414 96.7601 311.548 97.1615 312.37 97.9641C313.2 98.7575 313.616 99.8961 313.616 101.38C313.616 102.864 313.2 104.007 312.37 104.81C311.548 105.603 310.414 106 308.968 106H305.986V96.7601H308.968ZM309.08 104.95C310.134 104.95 310.956 104.637 311.544 104.012C312.141 103.377 312.44 102.5 312.44 101.38C312.44 100.26 312.141 99.3875 311.544 98.7621C310.956 98.1275 310.134 97.8101 309.08 97.8101H307.106V104.95H309.08Z" fill="#646464"/>
<path d="M328.967 104.95H334.259V106H327.847V96.7601H328.967V104.95Z" fill="#646464"/>
<path d="M343.11 96.6201C343.987 96.6201 344.743 96.8161 345.378 97.2081C346.022 97.5908 346.517 98.1368 346.862 98.8461C347.217 99.5555 347.394 100.4 347.394 101.38C347.394 102.36 347.217 103.205 346.862 103.914C346.517 104.623 346.022 105.174 345.378 105.566C344.743 105.949 343.987 106.14 343.11 106.14C342.233 106.14 341.472 105.949 340.828 105.566C340.193 105.174 339.699 104.623 339.344 103.914C338.999 103.205 338.826 102.36 338.826 101.38C338.826 100.4 338.999 99.5555 339.344 98.8461C339.699 98.1368 340.193 97.5908 340.828 97.2081C341.472 96.8161 342.233 96.6201 343.11 96.6201ZM343.11 97.6701C342.475 97.6701 341.925 97.8195 341.458 98.1181C340.991 98.4075 340.632 98.8321 340.38 99.3921C340.128 99.9428 340.002 100.605 340.002 101.38C340.002 102.155 340.128 102.822 340.38 103.382C340.632 103.933 340.991 104.357 341.458 104.656C341.925 104.945 342.475 105.09 343.11 105.09C343.754 105.09 344.305 104.945 344.762 104.656C345.229 104.357 345.588 103.933 345.84 103.382C346.092 102.822 346.218 102.155 346.218 101.38C346.218 100.605 346.092 99.9428 345.84 99.3921C345.588 98.8321 345.229 98.4075 344.762 98.1181C344.305 97.8195 343.754 97.6701 343.11 97.6701Z" fill="#646464"/>
<path d="M357.083 106.14C356.205 106.14 355.445 105.949 354.801 105.566C354.166 105.174 353.671 104.623 353.317 103.914C352.971 103.205 352.799 102.36 352.799 101.38C352.799 100.4 352.981 99.5555 353.345 98.8461C353.718 98.1368 354.236 97.5908 354.899 97.2081C355.561 96.8161 356.322 96.6201 357.181 96.6201C358.095 96.6201 358.837 96.7928 359.407 97.1381C359.985 97.4835 360.452 98.0155 360.807 98.7341L359.785 99.2941C359.579 98.7621 359.253 98.3608 358.805 98.0901C358.366 97.8101 357.825 97.6701 357.181 97.6701C356.555 97.6701 356 97.8195 355.515 98.1181C355.039 98.4075 354.661 98.8321 354.381 99.3921C354.11 99.9428 353.975 100.605 353.975 101.38C353.975 102.155 354.091 102.822 354.325 103.382C354.567 103.933 354.922 104.357 355.389 104.656C355.865 104.945 356.443 105.09 357.125 105.09C357.507 105.09 357.862 105.043 358.189 104.95C358.525 104.847 358.814 104.698 359.057 104.502C359.309 104.306 359.505 104.059 359.645 103.76C359.785 103.461 359.855 103.111 359.855 102.71V102.388H356.915V101.338H360.877V106H359.995L359.939 104.278L360.177 104.32C359.934 104.899 359.551 105.347 359.029 105.664C358.506 105.981 357.857 106.14 357.083 106.14Z" fill="#646464"/>
<path d="M368.109 96.7601V106H366.989V96.7601H368.109Z" fill="#646464"/>
<path d="M377.6 96.6201C378.412 96.6201 379.112 96.7881 379.7 97.1241C380.288 97.4508 380.778 97.9361 381.17 98.5801L380.232 99.3081C379.887 98.7108 379.495 98.2908 379.056 98.0481C378.627 97.7961 378.104 97.6701 377.488 97.6701C376.993 97.6701 376.583 97.7401 376.256 97.8801C375.939 98.0201 375.705 98.2068 375.556 98.4401C375.407 98.6641 375.332 98.9208 375.332 99.2101C375.332 99.5368 375.435 99.8261 375.64 100.078C375.845 100.321 376.256 100.512 376.872 100.652L378.874 101.1C379.761 101.296 380.377 101.595 380.722 101.996C381.077 102.388 381.254 102.878 381.254 103.466C381.254 103.989 381.105 104.455 380.806 104.866C380.517 105.267 380.106 105.58 379.574 105.804C379.042 106.028 378.417 106.14 377.698 106.14C377.026 106.14 376.433 106.051 375.92 105.874C375.416 105.687 374.982 105.44 374.618 105.132C374.254 104.824 373.955 104.479 373.722 104.096L374.702 103.298C374.879 103.653 375.108 103.965 375.388 104.236C375.668 104.507 376.004 104.717 376.396 104.866C376.797 105.015 377.255 105.09 377.768 105.09C378.244 105.09 378.655 105.034 379 104.922C379.355 104.801 379.625 104.628 379.812 104.404C379.999 104.171 380.092 103.891 380.092 103.564C380.092 103.265 379.994 102.999 379.798 102.766C379.602 102.523 379.233 102.341 378.692 102.22L376.522 101.73C375.953 101.599 375.491 101.422 375.136 101.198C374.791 100.965 374.539 100.694 374.38 100.386C374.231 100.069 374.156 99.7281 374.156 99.3641C374.156 98.8695 374.291 98.4168 374.562 98.0061C374.842 97.5861 375.239 97.2501 375.752 96.9981C376.275 96.7461 376.891 96.6201 377.6 96.6201Z" fill="#646464"/>
<path d="M393.173 96.7601V97.8101H389.953V106H388.833V97.8101H385.613V96.7601H393.173Z" fill="#646464"/>
<path d="M399.746 96.7601V106H398.626V96.7601H399.746Z" fill="#646464"/>
<path d="M413.717 103.634C413.521 104.157 413.241 104.609 412.877 104.992C412.513 105.365 412.083 105.65 411.589 105.846C411.103 106.042 410.571 106.14 409.993 106.14C409.115 106.14 408.355 105.949 407.711 105.566C407.076 105.174 406.581 104.623 406.227 103.914C405.881 103.205 405.709 102.36 405.709 101.38C405.709 100.4 405.881 99.5555 406.227 98.8461C406.581 98.1368 407.076 97.5908 407.711 97.2081C408.355 96.8161 409.106 96.6201 409.965 96.6201C410.562 96.6201 411.094 96.7041 411.561 96.8721C412.027 97.0308 412.424 97.2735 412.751 97.6001C413.087 97.9175 413.353 98.3095 413.549 98.7761L412.443 99.2941C412.237 98.7621 411.939 98.3608 411.547 98.0901C411.164 97.8101 410.665 97.6701 410.049 97.6701C409.423 97.6701 408.873 97.8195 408.397 98.1181C407.921 98.4075 407.547 98.8275 407.277 99.3781C407.015 99.9288 406.885 100.596 406.885 101.38C406.885 102.155 407.011 102.822 407.263 103.382C407.515 103.933 407.874 104.357 408.341 104.656C408.807 104.945 409.358 105.09 409.993 105.09C410.609 105.09 411.145 104.936 411.603 104.628C412.06 104.311 412.391 103.839 412.597 103.214L413.717 103.634Z" fill="#646464"/>
<path d="M422.334 96.6201C423.146 96.6201 423.846 96.7881 424.434 97.1241C425.022 97.4508 425.512 97.9361 425.904 98.5801L424.966 99.3081C424.621 98.7108 424.229 98.2908 423.79 98.0481C423.361 97.7961 422.838 97.6701 422.222 97.6701C421.728 97.6701 421.317 97.7401 420.99 97.8801C420.673 98.0201 420.44 98.2068 420.29 98.4401C420.141 98.6641 420.066 98.9208 420.066 99.2101C420.066 99.5368 420.169 99.8261 420.374 100.078C420.58 100.321 420.99 100.512 421.606 100.652L423.608 101.1C424.495 101.296 425.111 101.595 425.456 101.996C425.811 102.388 425.988 102.878 425.988 103.466C425.988 103.989 425.839 104.455 425.54 104.866C425.251 105.267 424.84 105.58 424.308 105.804C423.776 106.028 423.151 106.14 422.432 106.14C421.76 106.14 421.168 106.051 420.654 105.874C420.15 105.687 419.716 105.44 419.352 105.132C418.988 104.824 418.69 104.479 418.456 104.096L419.436 103.298C419.614 103.653 419.842 103.965 420.122 104.236C420.402 104.507 420.738 104.717 421.13 104.866C421.532 105.015 421.989 105.09 422.502 105.09C422.978 105.09 423.389 105.034 423.734 104.922C424.089 104.801 424.36 104.628 424.546 104.404C424.733 104.171 424.826 103.891 424.826 103.564C424.826 103.265 424.728 102.999 424.532 102.766C424.336 102.523 423.968 102.341 423.426 102.22L421.256 101.73C420.687 101.599 420.225 101.422 419.87 101.198C419.525 100.965 419.273 100.694 419.114 100.386C418.965 100.069 418.89 99.7281 418.89 99.3641C418.89 98.8695 419.026 98.4168 419.296 98.0061C419.576 97.5861 419.973 97.2501 420.486 96.9981C421.009 96.7461 421.625 96.6201 422.334 96.6201Z" fill="#646464"/>
</svg>
